# xmcd
#
# Track frame offsets: 
#        150
#        13763
#        24094
#        40741
#        56683
#        70231
#        84929
#        96204
#        113619
#        125168
#        138413
#
# Disc length: 2156 seconds
#
# Revision: 0
# Processed by: cddbd v1.5.2PL0 Copyright (c) Steve Scherf et al.
# Submitted via: ExactAudioCopyFreeDBPlugin 1.0
#
DISCID=89086a0b
DTITLE=The Bluegrass Diaries  - Jim Lauderdale
DYEAR=2007
DGENRE=Country
TTITLE0=This Is The Last Time (I'm Ever Gonna Hurt)
TTITLE1=All Roads Lead Back To You
TTITLE2=I Wanted To Believe
TTITLE3=Looking For A Good Place To Land
TTITLE4=Can We Find Forgiveness
TTITLE5=Chances
TTITLE6=One Blue Mule
TTITLE7=Are You Having Second Thoughts
TTITLE8=My Somewhere Just Got Here
TTITLE9=It's Such A Long Journey Home
TTITLE10=Ain't No Way To Run
EXTD=
EXTT0=
EXTT1=
EXTT2=
EXTT3=
EXTT4=
EXTT5=
EXTT6=
EXTT7=
EXTT8=
EXTT9=
EXTT10=
PLAYORDER=
